<svg version="1.1" viewBox="0.0 0.0 192.75590551181102 192.75590551181102" fill="none" stroke="none" stroke-linecap="square" stroke-miterlimit="10" xmlns:xlink="http://www.w3.org/1999/xlink" xmlns="http://www.w3.org/2000/svg"><clipPath id="p.0"><path d="m0 0l192.7559 0l0 192.7559l-192.7559 0l0 -192.7559z" clip-rule="nonzero"/></clipPath><g clip-path="url(#p.0)"><path fill="#000000" fill-opacity="0.0" d="m0 0l192.7559 0l0 192.7559l-192.7559 0z" fill-rule="evenodd"/><defs><linearGradient id="p.1" gradientUnits="userSpaceOnUse" gradientTransform="matrix(11.582467965914303 0.0 0.0 11.582467965914303 0.0 0.0)" spreadMethod="pad" x1="4.223756234717721" y1="-3.935333370880079" x2="-3.9663303298619965" y2="4.25466334744172"><stop offset="0.0" stop-color="#0067a9"/><stop offset="0.2" stop-color="#0067a9"/><stop offset="0.79" stop-color="#0367a7"/><stop offset="1.0" stop-color="#0367a7"/></linearGradient></defs><path fill="url(#p.1)" d="m1.4246109 96.64439l0 0c-0.042440653 -25.108955 9.946969 -49.203983 27.766195 -66.97365c17.819227 -17.769669 42.005302 -27.755081 67.22672 -27.755081l0 94.569595z" fill-rule="evenodd"/><defs><linearGradient id="p.2" gradientUnits="userSpaceOnUse" gradientTransform="matrix(0.0 -11.582441520757381 11.582441520757381 0.0 0.0 0.0)" spreadMethod="pad" x1="-12.397534577212033" y1="-3.9629296461686963" x2="-20.58760266364002" y2="4.227048151202821"><stop offset="0.0" stop-color="#0367a7"/><stop offset="0.2" stop-color="#0367a7"/><stop offset="0.79" stop-color="#3184b9"/><stop offset="1.0" stop-color="#3184b9"/></linearGradient></defs><path fill="url(#p.2)" d="m96.49693 190.9177l0 0c-25.200516 0.04197693 -49.383297 -9.911209 -67.21765 -27.665512c-17.834354 -17.754318 -27.856098 -41.852142 -27.856098 -66.98153l94.9152 0z" fill-rule="evenodd"/><defs><linearGradient id="p.3" gradientUnits="userSpaceOnUse" gradientTransform="matrix(-11.58246843535529 0.0 0.0 -11.58246843535529 0.0 0.0)" spreadMethod="pad" x1="-12.418283710750107" y1="-20.5773734282499" x2="-20.608370828567885" y2="-12.387376599278783"><stop offset="0.0" stop-color="#3184b9"/><stop offset="0.2" stop-color="#3184b9"/><stop offset="0.79" stop-color="#a9cce2"/><stop offset="1.0" stop-color="#a9cce2"/></linearGradient></defs><path fill="url(#p.3)" d="m191.3313 96.11152l0 0c0.042434692 25.108955 -9.946976 49.203987 -27.766205 66.973656c-17.819214 17.769669 -42.005295 27.755081 -67.226715 27.755081l0 -94.5696z" fill-rule="evenodd"/><defs><linearGradient id="p.4" gradientUnits="userSpaceOnUse" gradientTransform="matrix(0.0 11.582441520753965 -11.582441520753965 0.0 0.0 0.0)" spreadMethod="pad" x1="4.244543868862328" y1="-20.604897443894366" x2="-3.9455233323812475" y2="-12.414918761333604"><stop offset="0.0" stop-color="#a9cce2"/><stop offset="0.2" stop-color="#a9cce2"/><stop offset="0.79" stop-color="#ffffff"/><stop offset="1.0" stop-color="#ffffff"/></linearGradient></defs><path fill="url(#p.4)" d="m96.257675 1.8382188l0 0c25.200516 -0.04197848 49.3833 9.911195 67.21765 27.665504c17.834366 17.75431 27.85611 41.852142 27.85611 66.98153l-94.91521 0z" fill-rule="evenodd"/><path fill="#969797" d="m83.04413 16.966223l0 0c0 -8.225094 6.6921234 -14.89285 14.947273 -14.89285l0 0c3.964264 0 7.766159 1.5690637 10.569321 4.362015c2.803154 2.792951 4.3779526 6.5810056 4.3779526 10.530834l0 0c0 8.225096 -6.6921234 14.892851 -14.947273 14.892851l0 0c-8.25515 0 -14.947273 -6.667755 -14.947273 -14.892851z" fill-rule="evenodd"/><path fill="#0067a9" d="m81.17572 16.809797l0 0c0 -8.225095 6.6921234 -14.892851 14.947273 -14.892851l0 0c3.964264 0 7.766159 1.5690637 10.569321 4.362015c2.803154 2.7929516 4.3779526 6.581006 4.3779526 10.530836l0 0c0 8.225094 -6.6921234 14.892851 -14.947273 14.892851l0 0c-8.25515 0 -14.947273 -6.667757 -14.947273 -14.892851z" fill-rule="evenodd"/><path fill="#ffffff" d="m31.101046 96.48525l0 0c0 -35.77916 29.110739 -64.7839 65.02065 -64.7839l0 0c17.244545 0 33.7828 6.825428 45.97654 18.974766c12.193741 12.149338 19.044113 28.627377 19.044113 45.80913l0 0c0 35.779167 -29.110748 64.7839 -65.02065 64.7839l0 0c-35.909912 0 -65.02065 -29.00473 -65.02065 -64.7839z" fill-rule="evenodd"/></g></svg>