<svg version="1.1" viewBox="0.0 0.0 709.4356955380578 279.21522309711287" fill="none" stroke="none" stroke-linecap="square" stroke-miterlimit="10" xmlns:xlink="http://www.w3.org/1999/xlink" xmlns="http://www.w3.org/2000/svg"><clipPath id="p.0"><path d="m0 0l709.43567 0l0 279.2152l-709.43567 0l0 -279.2152z" clip-rule="nonzero"/></clipPath><g clip-path="url(#p.0)"><path fill="#000000" fill-opacity="0.0" d="m0 0l709.43567 0l0 279.2152l-709.43567 0z" fill-rule="evenodd"/><path fill="#1e88e5" d="m96.0 96.0l88.0 0l0 88.0l-88.0 0z" fill-rule="evenodd"/><path stroke="#000000" stroke-width="1.0" stroke-linejoin="round" stroke-linecap="butt" d="m96.0 96.0l88.0 0l0 88.0l-88.0 0z" fill-rule="evenodd"/><path fill="#ffffff" d="m119.14844 168.79999l0 -57.265617l42.453125 0l0 9.6875l-30.890625 0l0 12.687492l28.75 0l0 9.65625l-28.75 0l0 15.578125l31.984375 0l0 9.65625l-43.546875 0z" fill-rule="nonzero"/><path fill="#ec407a" d="m8.0 96.0l88.0 0l0 88.0l-88.0 0z" fill-rule="evenodd"/><path stroke="#000000" stroke-width="1.0" stroke-linejoin="round" stroke-linecap="butt" d="m8.0 96.0l88.0 0l0 88.0l-88.0 0z" fill-rule="evenodd"/><path fill="#ffffff" d="m80.58203 168.79999l-12.578125 0l-5.0 -13.015625l-22.890625 0l-4.734375 13.015625l-12.265625 0l22.3125 -57.265617l12.21875 0l22.9375 57.265617zm-21.296875 -22.65625l-7.890625 -21.249992l-7.734375 21.249992l15.625 0z" fill-rule="nonzero"/><path fill="#ec407a" d="m184.0 96.0l88.0 0l0 88.0l-88.0 0z" fill-rule="evenodd"/><path stroke="#000000" stroke-width="1.0" stroke-linejoin="round" stroke-linecap="butt" d="m184.0 96.0l88.0 0l0 88.0l-88.0 0z" fill-rule="evenodd"/><path fill="#ffffff" d="m204.97266 111.53437l22.890625 0q6.796875 0 10.140625 0.5625q3.34375 0.5625 5.96875 2.359375q2.640625 1.796875 4.390625 4.796875q1.765625 2.984375 1.765625 6.6875q0 4.0312424 -2.171875 7.3906174q-2.15625 3.359375 -5.875 5.03125q5.234375 1.53125 8.046875 5.203125q2.8125 3.671875 2.8125 8.625q0 3.90625 -1.8125 7.609375q-1.8125 3.6875 -4.96875 5.890625q-3.140625 2.203125 -7.75 2.71875q-2.890625 0.3125 -13.9375 0.390625l-19.5 0l0 -57.265617zm11.5625 9.53125l0 13.234367l7.578125 0q6.765625 0 8.40625 -0.1875q2.96875 -0.359375 4.65625 -2.046875q1.703125 -1.703125 1.703125 -4.4843674q0 -2.65625 -1.46875 -4.3125q-1.453125 -1.65625 -4.34375 -2.015625q-1.71875 -0.1875 -9.890625 -0.1875l-6.640625 0zm0 22.765617l0 15.3125l10.703125 0q6.25 0 7.9375 -0.34375q2.578125 -0.46875 4.1875 -2.28125q1.625 -1.828125 1.625 -4.875q0 -2.578125 -1.25 -4.375q-1.25 -1.796875 -3.609375 -2.609375q-2.359375 -0.828125 -10.25 -0.828125l-9.34375 0z" fill-rule="nonzero"/><path fill="#009688" d="m96.0 8.0l88.0 0l0 88.0l-88.0 0z" fill-rule="evenodd"/><path stroke="#000000" stroke-width="1.0" stroke-linejoin="round" stroke-linecap="butt" d="m96.0 8.0l88.0 0l0 88.0l-88.0 0z" fill-rule="evenodd"/><path fill="#ffffff" d="m153.58203 59.737495l11.203125 3.5625q-2.578125 9.375 -8.578125 13.9375q-5.984375 4.546875 -15.203125 4.546875q-11.40625 0 -18.75 -7.796875q-7.34375 -7.796875 -7.34375 -21.3125q0 -14.296875 7.375 -22.203125q7.390625 -7.921875 19.421875 -7.921875q10.5 0 17.0625 6.21875q3.90625 3.671875 5.859375 10.546875l-11.4375 2.734375q-1.015625 -4.453125 -4.25 -7.03125q-3.21875 -2.578125 -7.828125 -2.578125q-6.359375 0 -10.328125 4.578125q-3.96875 4.5625 -3.96875 14.796875q0 10.859375 3.90625 15.46875q3.90625 4.609375 10.15625 4.609375q4.609375 0 7.921875 -2.921875q3.328125 -2.9375 4.78125 -9.234375z" fill-rule="nonzero"/><path fill="#009688" d="m96.0 184.0l88.0 0l0 88.0l-88.0 0z" fill-rule="evenodd"/><path stroke="#000000" stroke-width="1.0" stroke-linejoin="round" stroke-linecap="butt" d="m96.0 184.0l88.0 0l0 88.0l-88.0 0z" fill-rule="evenodd"/><path fill="#ffffff" d="m116.89453 199.53436l21.140625 0q7.140625 0 10.890625 1.09375q5.046875 1.484375 8.640625 5.28125q3.59375 3.78125 5.46875 9.265625q1.875 5.484375 1.875 13.53125q0 7.078125 -1.765625 12.1875q-2.140625 6.25 -6.125 10.125q-3.015625 2.921875 -8.125 4.5625q-3.828125 1.21875 -10.234375 1.21875l-21.765625 0l0 -57.265625zm11.5625 9.6875l0 37.921875l8.640625 0q4.84375 0 6.984375 -0.546875q2.8125 -0.703125 4.671875 -2.375q1.859375 -1.6875 3.03125 -5.53125q1.171875 -3.84375 1.171875 -10.484375q0 -6.640625 -1.171875 -10.1875q-1.171875 -3.5625 -3.28125 -5.546875q-2.109375 -2.0 -5.359375 -2.703125q-2.421875 -0.546875 -9.484375 -0.546875l-5.203125 0z" fill-rule="nonzero"/><path fill="#000000" fill-opacity="0.0" d="m280.0 0l496.0 0l0 281.16534l-496.0 0z" fill-rule="evenodd"/><path fill="#ffffff" d="m346.46875 85.799995l-12.578125 0l-5.0 -13.015625l-22.890625 0l-4.734375 13.015625l-12.265625 0l22.3125 -57.265625l12.21875 0l22.9375 57.265625zm-21.296875 -22.65625l-7.890625 -21.25l-7.734375 21.25l15.625 0zm27.460938 -34.609375l22.890625 0q6.796875 0 10.140625 0.5625q3.34375 0.5625 5.96875 2.359375q2.640625 1.796875 4.390625 4.796875q1.765625 2.984375 1.765625 6.6875q0 4.03125 -2.171875 7.390625q-2.15625 3.359375 -5.875 5.03125q5.234375 1.53125 8.046875 5.203125q2.8125 3.671875 2.8125 8.625q0 3.90625 -1.8125 7.609375q-1.8125 3.6875 -4.96875 5.890625q-3.140625 2.203125 -7.75 2.71875q-2.890625 0.3125 -13.9375 0.390625l-19.5 0l0 -57.265625zm11.5625 9.53125l0 13.234375l7.578125 0q6.765625 0 8.40625 -0.1875q2.96875 -0.359375 4.65625 -2.046875q1.703125 -1.703125 1.703125 -4.484375q0 -2.65625 -1.46875 -4.3125q-1.453125 -1.65625 -4.34375 -2.015625q-1.71875 -0.1875 -9.890625 -0.1875l-6.640625 0zm0 22.765625l0 15.3125l10.703125 0q6.25 0 7.9375 -0.34375q2.578125 -0.46875 4.1875 -2.28125q1.625 -1.828125 1.625 -4.875q0 -2.578125 -1.25 -4.375q-1.25 -1.796875 -3.609375 -2.609375q-2.359375 -0.828125 -10.25 -0.828125l-9.34375 0zm58.679688 16.71875l0 -14.875l-15.0 0l0 -10.28125l15.0 0l0 -14.875l10.0 0l0 14.875l15.03125 0l0 10.28125l-15.03125 0l0 14.875l-10.0 0zm70.859375 -12.8125l11.203125 3.5625q-2.578125 9.375 -8.578125 13.9375q-5.984375 4.546875 -15.203125 4.546875q-11.40625 0 -18.75 -7.796875q-7.34375 -7.796875 -7.34375 -21.3125q0 -14.296875 7.375 -22.203125q7.390625 -7.921875 19.421875 -7.921875q10.5 0 17.0625 6.21875q3.90625 3.671875 5.859375 10.546875l-11.4375 2.734375q-1.015625 -4.453125 -4.25 -7.03125q-3.21875 -2.578125 -7.828125 -2.578125q-6.359375 0 -10.328125 4.578125q-3.96875 4.5625 -3.96875 14.796875q0 10.859375 3.90625 15.46875q3.90625 4.609375 10.15625 4.609375q4.609375 0 7.921875 -2.921875q3.328125 -2.9375 4.78125 -9.234375zm21.085938 -36.203125l21.140625 0q7.140625 0 10.890625 1.09375q5.046875 1.484375 8.640625 5.28125q3.59375 3.78125 5.46875 9.265625q1.875 5.484375 1.875 13.53125q0 7.078125 -1.765625 12.1875q-2.140625 6.25 -6.125 10.125q-3.015625 2.921875 -8.125 4.5625q-3.828125 1.21875 -10.234375 1.21875l-21.765625 0l0 -57.265625zm11.5625 9.6875l0 37.921875l8.640625 0q4.84375 0 6.984375 -0.546875q2.8125 -0.703125 4.671875 -2.375q1.859375 -1.6875 3.03125 -5.53125q1.171875 -3.84375 1.171875 -10.484375q0 -6.640625 -1.171875 -10.1875q-1.171875 -3.5625 -3.28125 -5.546875q-2.109375 -2.0 -5.359375 -2.703125q-2.421875 -0.546875 -9.484375 -0.546875l-5.203125 0zm43.757812 15.703125l0 -10.078125l40.03125 0l0 10.078125l-40.03125 0zm0 17.34375l0 -10.125l40.03125 0l0 10.125l-40.03125 0zm49.21875 14.53125l0 -57.265625l42.453125 0l0 9.6875l-30.890625 0l0 12.6875l28.75 0l0 9.65625l-28.75 0l0 15.578125l31.984375 0l0 9.65625l-43.546875 0zm72.21875 -34.578125l0 6.171875l-23.703125 0q0.421875 -3.3125 2.125 -5.921875q1.703125 -2.625 7.59375 -7.28125q4.453125 -3.46875 5.359375 -4.609375q1.203125 -1.484375 1.203125 -3.0q0 -1.453125 -0.984375 -2.3125q-0.96875 -0.859375 -2.953125 -0.859375q-2.0 0 -2.984375 0.96875q-0.96875 0.953125 -1.203125 3.53125l-7.375 -0.625q0.578125 -4.578125 2.921875 -6.6875q3.125 -2.765625 8.828125 -2.765625q5.4375 0 8.296875 2.5q2.875 2.5 2.875 5.890625q0 2.109375 -0.90625 4.015625q-0.890625 1.890625 -2.84375 3.921875q-1.015625 1.015625 -5.265625 4.375q-2.265625 1.75 -3.25 2.6875l12.265625 0z" fill-rule="nonzero"/><path fill="#ffffff" d="m294.78125 124.53436l21.140625 0q7.140625 0 10.890625 1.09375q5.046875 1.484375 8.640625 5.28125q3.59375 3.78125 5.46875 9.265625q1.875 5.484375 1.875 13.53125q0 7.078125 -1.765625 12.1875q-2.140625 6.25 -6.125 10.125q-3.015625 2.921875 -8.125 4.5625q-3.828125 1.21875 -10.234375 1.21875l-21.765625 0l0 -57.265625zm11.5625 9.6875l0 37.921875l8.640625 0q4.84375 0 6.984375 -0.546875q2.8125 -0.703125 4.671875 -2.375q1.859375 -1.6875 3.03125 -5.53125q1.171875 -3.84375 1.171875 -10.484375q0 -6.640625 -1.171875 -10.1875q-1.171875 -3.5625 -3.28125 -5.546875q-2.109375 -2.0 -5.359375 -2.703125q-2.421875 -0.546875 -9.484375 -0.546875l-5.203125 0zm43.757812 15.703125l0 -10.078125l40.03125 0l0 10.078125l-40.03125 0zm0 17.34375l0 -10.125l40.03125 0l0 10.125l-40.03125 0z" fill-rule="nonzero"/><path fill="#010000" fill-opacity="0.0" d="m393.4922 109.37811l222.1875 0l0 91.99219l-222.1875 0l0 -91.99219z" fill-rule="nonzero"/><path fill="#ffffff" d="m399.3203 181.79999l0 -57.265625l42.453125 0l0 9.6875l-30.890625 0l0 12.6875l28.75 0l0 9.65625l-28.75 0l0 15.578125l31.984375 0l0 9.65625l-43.546875 0zm72.21875 -34.578125l0 6.171875l-23.703125 0q0.421875 -3.3125 2.125 -5.921875q1.703125 -2.625 7.59375 -7.28125q4.453125 -3.46875 5.359375 -4.609375q1.203125 -1.484375 1.203125 -3.0q0 -1.453125 -0.984375 -2.3125q-0.96875 -0.859375 -2.953125 -0.859375q-2.0 0 -2.984375 0.96875q-0.96875 0.953125 -1.203125 3.53125l-7.375 -0.625q0.578125 -4.578125 2.921875 -6.6875q3.125 -2.765625 8.828125 -2.765625q5.4375 0 8.296875 2.5q2.875 2.5 2.875 5.890625q0 2.109375 -0.90625 4.015625q-0.890625 1.890625 -2.84375 3.921875q-1.015625 1.015625 -5.265625 4.375q-2.265625 1.75 -3.25 2.6875l12.265625 0zm6.453125 19.296875l0 -10.96875l21.5625 0l0 10.96875l-21.5625 0zm79.609375 15.28125l-12.578125 0l-5.0 -13.015625l-22.890625 0l-4.734375 13.015625l-12.265625 0l22.3125 -57.265625l12.21875 0l22.9375 57.265625zm-21.296875 -22.65625l-7.890625 -21.25l-7.734375 21.25l15.625 0zm27.460938 -34.609375l22.890625 0q6.796875 0 10.140625 0.5625q3.34375 0.5625 5.96875 2.359375q2.640625 1.796875 4.390625 4.796875q1.765625 2.984375 1.765625 6.6875q0 4.03125 -2.171875 7.390625q-2.15625 3.359375 -5.875 5.03125q5.234375 1.53125 8.046875 5.203125q2.8125 3.671875 2.8125 8.625q0 3.90625 -1.8125 7.609375q-1.8125 3.6875 -4.96875 5.890625q-3.140625 2.203125 -7.75 2.71875q-2.890625 0.3125 -13.9375 0.390625l-19.5 0l0 -57.265625zm11.5625 9.53125l0 13.234375l7.578125 0q6.765625 0 8.40625 -0.1875q2.96875 -0.359375 4.65625 -2.046875q1.703125 -1.703125 1.703125 -4.484375q0 -2.65625 -1.46875 -4.3125q-1.453125 -1.65625 -4.34375 -2.015625q-1.71875 -0.1875 -9.890625 -0.1875l-6.640625 0zm0 22.765625l0 15.3125l10.703125 0q6.25 0 7.9375 -0.34375q2.578125 -0.46875 4.1875 -2.28125q1.625 -1.828125 1.625 -4.875q0 -2.578125 -1.25 -4.375q-1.25 -1.796875 -3.609375 -2.609375q-2.359375 -0.828125 -10.25 -0.828125l-9.34375 0z" fill-rule="nonzero"/><path fill="#010000" fill-opacity="0.0" d="m615.6797 109.37811l0 0l0 91.99219l0 0l0 -91.99219z" fill-rule="nonzero"/><path fill="#ffffff" d="m393.4922 186.99998l222.1875 0l0 7.199997l-222.1875 0l0 -7.199997z" fill-rule="nonzero"/><path fill="#ffffff" d="m509.28125 233.69748l11.203125 3.5625q-2.578125 9.375 -8.578125 13.9375q-5.984375 4.546875 -15.203125 4.546875q-11.40625 0 -18.75 -7.796875q-7.34375 -7.796875 -7.34375 -21.3125q0 -14.296875 7.375 -22.203125q7.390625 -7.921875 19.421875 -7.921875q10.5 0 17.0625 6.21875q3.90625 3.671875 5.859375 10.546875l-11.4375 2.734375q-1.015625 -4.453125 -4.25 -7.03125q-3.21875 -2.578125 -7.828125 -2.578125q-6.359375 0 -10.328125 4.578125q-3.96875 4.5625 -3.96875 14.796875q0 10.859375 3.90625 15.46875q3.90625 4.609375 10.15625 4.609375q4.609375 0 7.921875 -2.921875q3.328125 -2.9375 4.78125 -9.234375z" fill-rule="nonzero"/></g></svg>