<svg version="1.1" viewBox="0.0 0.0 271.45931758530185 162.21522309711287" fill="none" stroke="none" stroke-linecap="square" stroke-miterlimit="10" xmlns:xlink="http://www.w3.org/1999/xlink" xmlns="http://www.w3.org/2000/svg"><clipPath id="p.0"><path d="m0 0l271.45932 0l0 162.21523l-271.45932 0l0 -162.21523z" clip-rule="nonzero"/></clipPath><g clip-path="url(#p.0)"><path fill="#000000" fill-opacity="0.0" d="m0 0l271.45932 0l0 162.21523l-271.45932 0z" fill-rule="evenodd"/><path fill="#ffffff" d="m12.60288 154.51552l24.120392 -35.592194l0 0c-41.623226 -27.169876 -37.58184 -66.69261 9.336601 -91.30727c46.918438 -24.614655 121.35901 -26.265636 171.9761 -3.8141766c50.617096 22.45146 60.845337 61.657707 23.629745 90.57611c-37.215576 28.918419 -109.69548 38.084908 -167.44647 21.176857z" fill-rule="evenodd"/><path stroke="#000000" stroke-width="8.0" stroke-linejoin="round" stroke-linecap="butt" d="m12.60288 154.51552l24.120392 -35.592194l0 0c-41.623226 -27.169876 -37.58184 -66.69261 9.336601 -91.30727c46.918438 -24.614655 121.35901 -26.265636 171.9761 -3.8141766c50.617096 22.45146 60.845337 61.657707 23.629745 90.57611c-37.215576 28.918419 -109.69548 38.084908 -167.44647 21.176857z" fill-rule="evenodd"/><path fill="#000000" fill-opacity="0.0" d="m8.0 -4.5984254l256.0 0l0 140.59842l-256.0 0z" fill-rule="evenodd"/><path fill="#000000" d="m72.96094 98.49532q-3.515625 1.421875 -7.28125 2.09375q-3.75 0.6875 -7.859375 0.6875q-5.90625 0 -10.59375 -1.609375q-4.6875 -1.609375 -7.953125 -4.78125q-3.265625 -3.171875 -5.0 -7.859375q-1.734375 -4.6875 -1.734375 -10.84375q0 -5.953125 1.875 -10.78125q1.875 -4.84375 5.296875 -8.265625q3.421875 -3.421875 8.21875 -5.265625q4.8125 -1.859375 10.734375 -1.859375q4.828125 0 8.125 0.515625q3.296875 0.515625 5.9375 1.296875l0 11.5625q-3.03125 -1.515625 -6.578125 -2.34375q-3.53125 -0.828125 -6.703125 -0.828125q-3.328125 0 -5.96875 1.125q-2.625 1.125 -4.4375 3.125q-1.8125 2.0 -2.765625 4.859375q-0.953125 2.859375 -0.953125 6.265625q0 3.578125 1.03125 6.40625q1.03125 2.828125 2.90625 4.8125q1.875 1.96875 4.515625 3.03125q2.640625 1.046875 5.859375 1.046875q1.5625 0 3.296875 -0.21875q1.734375 -0.234375 3.46875 -0.640625q1.734375 -0.421875 3.40625 -0.953125q1.6875 -0.53125 3.15625 -1.171875l0 10.59375zm44.04297 -61.28125q0 1.609375 -0.59375 3.03125q-0.578125 1.421875 -1.625 2.46875q-1.046875 1.046875 -2.46875 1.65625q-1.40625 0.609375 -3.078125 0.609375q-1.65625 0 -3.09375 -0.609375q-1.4375 -0.609375 -2.5 -1.65625q-1.046875 -1.046875 -1.640625 -2.46875q-0.578125 -1.421875 -0.578125 -3.03125q0 -1.609375 0.578125 -3.015625q0.59375 -1.421875 1.640625 -2.499998q1.0625 -1.078125 2.5 -1.6875q1.4375 -0.609375 3.09375 -0.609375q1.671875 0 3.078125 0.609375q1.421875 0.609375 2.46875 1.6875q1.046875 1.0781231 1.625 2.499998q0.59375 1.40625 0.59375 3.015625zm-13.1875 22.859375l-14.0 0l0 -9.28125l26.21875 0l0 40.328125l14.296875 0l0 9.28125l-42.234375 0l0 -9.28125l15.71875 0l0 -31.046875zm79.88672 39.84375q-3.21875 0.734375 -6.5 1.171875q-3.265625 0.4375 -6.1875 0.4375q-4.890625 0 -8.4375 -1.03125q-3.53125 -1.015625 -5.859375 -3.109375q-2.3125 -2.109375 -3.40625 -5.359375q-1.09375 -3.25 -1.09375 -7.734375l0 -24.21875l-13.34375 0l0 -9.28125l13.34375 0l0 -12.703125l12.203125 -3.171875l0 15.875l19.28125 0l0 9.28125l-19.28125 0l0 23.328125q0 4.25 1.953125 6.421875q1.953125 2.171875 6.546875 2.171875q2.921875 0 5.703125 -0.484375q2.78125 -0.484375 5.078125 -1.125l0 9.53125zm57.277344 -28.125q0 1.21875 -0.078125 3.171875q-0.0625 1.953125 -0.21875 3.65625l-32.609375 0q0 3.28125 1.0 5.765625q1.0 2.484375 2.828125 4.171875q1.828125 1.6875 4.390625 2.5625q2.5625 0.875 5.6875 0.875q3.625 0 7.75 -0.546875q4.125 -0.5625 8.5625 -1.84375l0 9.484375q-1.90625 0.53125 -4.15625 0.96875q-2.234375 0.4375 -4.578125 0.78125q-2.34375 0.34375 -4.734375 0.515625q-2.390625 0.171875 -4.640625 0.171875q-5.671875 0 -10.171875 -1.609375q-4.484375 -1.609375 -7.609375 -4.765625q-3.125 -3.15625 -4.78125 -7.78125q-1.65625 -4.640625 -1.65625 -10.75q0 -6.046875 1.65625 -11.0q1.65625 -4.96875 4.6875 -8.5q3.03125 -3.546875 7.34375 -5.46875q4.328125 -1.9375 9.65625 -1.9375q5.265625 0 9.3125 1.640625q4.0625 1.640625 6.796875 4.578125q2.734375 2.921875 4.140625 6.96875q1.421875 4.046875 1.421875 8.890625zm-12.109375 -1.71875q0.046875 -2.921875 -0.734375 -5.09375q-0.78125 -2.171875 -2.125 -3.59375q-1.34375 -1.421875 -3.125 -2.09375q-1.78125 -0.6875 -3.828125 -0.6875q-4.5 0 -7.375 3.0q-2.875 3.0 -3.421875 8.46875l20.609375 0z" fill-rule="nonzero"/></g></svg>