<svg version="1.1" viewBox="0.0 0.0 271.45931758530185 162.21522309711287" fill="none" stroke="none" stroke-linecap="square" stroke-miterlimit="10" xmlns:xlink="http://www.w3.org/1999/xlink" xmlns="http://www.w3.org/2000/svg"><clipPath id="p.0"><path d="m0 0l271.45932 0l0 162.21523l-271.45932 0l0 -162.21523z" clip-rule="nonzero"/></clipPath><g clip-path="url(#p.0)"><path fill="#000000" fill-opacity="0.0" d="m0 0l271.45932 0l0 162.21523l-271.45932 0z" fill-rule="evenodd"/><path fill="#ffffff" d="m12.60288 154.51552l24.120392 -35.592194l0 0c-41.623226 -27.169876 -37.58184 -66.69261 9.336601 -91.30727c46.918438 -24.614655 121.35901 -26.265636 171.9761 -3.8141766c50.617096 22.45146 60.845337 61.657707 23.629745 90.57611c-37.215576 28.918419 -109.69548 38.084908 -167.44647 21.176857z" fill-rule="evenodd"/><path stroke="#000000" stroke-width="8.0" stroke-linejoin="round" stroke-linecap="butt" d="m12.60288 154.51552l24.120392 -35.592194l0 0c-41.623226 -27.169876 -37.58184 -66.69261 9.336601 -91.30727c46.918438 -24.614655 121.35901 -26.265636 171.9761 -3.8141766c50.617096 22.45146 60.845337 61.657707 23.629745 90.57611c-37.215576 28.918419 -109.69548 38.084908 -167.44647 21.176857z" fill-rule="evenodd"/><path fill="#000000" d="m89.77396 101.00938q-2.578125 1.03125 -5.34375 1.53125q-2.75 0.5 -5.75 0.5q-4.34375 0 -7.78125 -1.171875q-3.421875 -1.1875 -5.828125 -3.515625q-2.40625 -2.328125 -3.671875 -5.765625q-1.265625 -3.4375 -1.265625 -7.953125q0 -4.359375 1.375 -7.90625q1.375 -3.546875 3.875 -6.046875q2.515625 -2.515625 6.03125 -3.875q3.53125 -1.359375 7.875 -1.359375q3.546875 0 5.953125 0.375q2.421875 0.375 4.359375 0.953125l0 8.484375q-2.21875 -1.109375 -4.828125 -1.71875q-2.59375 -0.609375 -4.921875 -0.609375q-2.421875 0 -4.359375 0.828125q-1.9375 0.828125 -3.265625 2.296875q-1.3125 1.453125 -2.015625 3.5625q-0.703125 2.09375 -0.703125 4.59375q0 2.609375 0.75 4.6875q0.75 2.078125 2.125 3.53125q1.390625 1.453125 3.3125 2.21875q1.9375 0.765625 4.3125 0.765625q1.140625 0 2.40625 -0.15625q1.28125 -0.15625 2.546875 -0.453125q1.265625 -0.3125 2.5 -0.703125q1.234375 -0.40625 2.3125 -0.875l0 7.78125zm32.30052 -44.9375q0 1.171875 -0.4375 2.21875q-0.421875 1.03125 -1.203125 1.8125q-0.765625 0.765625 -1.8125 1.21875q-1.03125 0.4375 -2.25 0.4375q-1.203125 0 -2.265625 -0.4375q-1.0625 -0.453125 -1.828125 -1.21875q-0.765625 -0.78125 -1.203125 -1.8125q-0.421875 -1.046875 -0.421875 -2.21875q0 -1.1875 0.421875 -2.21875q0.4375 -1.046875 1.203125 -1.828125q0.765625 -0.796875 1.828125 -1.234375q1.0625 -0.453125 2.265625 -0.453125q1.21875 0 2.25 0.453125q1.046875 0.4375 1.8125 1.234375q0.78125 0.78125 1.203125 1.828125q0.4375 1.03125 0.4375 2.21875zm-9.671875 16.75l-10.28125 0l0 -6.796875l19.234375 0l0 29.578125l10.484375 0l0 6.796875l-30.96875 0l0 -6.796875l11.53125 0l0 -22.78125zm58.58177 29.21875q-2.359375 0.53125 -4.765625 0.859375q-2.40625 0.328125 -4.546875 0.328125q-3.578125 0 -6.171875 -0.765625q-2.59375 -0.75 -4.296875 -2.28125q-1.703125 -1.546875 -2.515625 -3.921875q-0.796875 -2.375 -0.796875 -5.671875l0 -17.765625l-9.78125 0l0 -6.796875l9.78125 0l0 -9.3125l8.953125 -2.328125l0 11.640625l14.140625 0l0 6.796875l-14.140625 0l0 17.125q0 3.109375 1.421875 4.703125q1.4375 1.59375 4.796875 1.59375q2.15625 0 4.1875 -0.359375q2.046875 -0.359375 3.734375 -0.828125l0 6.984375zm42.00363 -20.625q0 0.890625 -0.0625 2.328125q-0.046875 1.4375 -0.15625 2.6875l-23.921875 0q0 2.40625 0.734375 4.234375q0.734375 1.8125 2.078125 3.046875q1.34375 1.234375 3.21875 1.890625q1.875 0.640625 4.171875 0.640625q2.65625 0 5.671875 -0.40625q3.03125 -0.421875 6.28125 -1.34375l0 6.9375q-1.390625 0.390625 -3.046875 0.71875q-1.640625 0.328125 -3.359375 0.578125q-1.71875 0.25 -3.46875 0.375q-1.75 0.125 -3.40625 0.125q-4.140625 0 -7.4375 -1.1875q-3.296875 -1.1875 -5.59375 -3.484375q-2.28125 -2.3125 -3.5 -5.71875q-1.21875 -3.40625 -1.21875 -7.875q0 -4.4375 1.21875 -8.0625q1.21875 -3.640625 3.4375 -6.234375q2.21875 -2.609375 5.375 -4.015625q3.171875 -1.421875 7.078125 -1.421875q3.875 0 6.84375 1.203125q2.96875 1.203125 4.96875 3.359375q2.015625 2.140625 3.046875 5.109375q1.046875 2.96875 1.046875 6.515625zm-8.890625 -1.25q0.03125 -2.15625 -0.546875 -3.734375q-0.5625 -1.59375 -1.546875 -2.625q-0.984375 -1.046875 -2.296875 -1.546875q-1.296875 -0.515625 -2.796875 -0.515625q-3.296875 0 -5.421875 2.203125q-2.109375 2.203125 -2.5 6.21875l15.109375 0z" fill-rule="nonzero"/></g></svg>