<svg version="1.1" viewBox="0.0 0.0 160.0 160.0" fill="none" stroke="none" stroke-linecap="square" stroke-miterlimit="10" xmlns:xlink="http://www.w3.org/1999/xlink" xmlns="http://www.w3.org/2000/svg"><clipPath id="p.0"><path d="m0 0l160.0 0l0 160.0l-160.0 0l0 -160.0z" clip-rule="nonzero"/></clipPath><g clip-path="url(#p.0)"><path fill="#000000" fill-opacity="0.0" d="m0 0l160.0 0l0 160.0l-160.0 0z" fill-rule="evenodd"/><path fill="#000000" d="m0 80.0l0 0c0 -44.18278 35.81722 -80.0 80.0 -80.0l0 0c21.217316 0 41.565636 8.428547 56.568542 23.431458c15.002914 15.002911 23.431458 35.351223 23.431458 56.568542l0 0c0 44.182777 -35.817223 80.0 -80.0 80.0l0 0c-44.18278 0 -80.0 -35.817223 -80.0 -80.0z" fill-rule="evenodd"/><path fill="#ffffff" d="m32.24 56.0l95.520004 0c4.3071213 0 8.437828 1.7109947 11.483406 4.756584c3.0455933 3.0455933 4.756592 7.1763 4.756592 11.483414l0 47.760002c0 5.874634E-4 -4.7302246E-4 0.0010681152 -0.0010681152 0.0010681152l-127.99893 -0.0010681152l0 0c-5.893707E-4 0 -0.0010662079 -4.8065186E-4 -0.0010662079 -0.0010681152l0.0010662079 -47.758934l0 0c0 -8.969101 7.270895 -16.239998 16.240002 -16.239998z" fill-rule="evenodd"/><path stroke="#000000" stroke-width="8.0" stroke-linejoin="round" stroke-linecap="butt" d="m32.24 56.0l95.520004 0c4.3071213 0 8.437828 1.7109947 11.483406 4.756584c3.0455933 3.0455933 4.756592 7.1763 4.756592 11.483414l0 47.760002c0 5.874634E-4 -4.7302246E-4 0.0010681152 -0.0010681152 0.0010681152l-127.99893 -0.0010681152l0 0c-5.893707E-4 0 -0.0010662079 -4.8065186E-4 -0.0010662079 -0.0010681152l0.0010662079 -47.758934l0 0c0 -8.969101 7.270895 -16.239998 16.240002 -16.239998z" fill-rule="evenodd"/><path fill="#ffffff" d="m40.0 24.0l80.0 0l0 32.0l-80.0 0z" fill-rule="evenodd"/><path fill="#000000" d="m120.0 72.0l0 0c0 -4.4182816 3.5817184 -8.0 8.0 -8.0l0 0c2.1217346 0 4.1565704 0.84285736 5.6568604 2.3431473c1.5002899 1.5002899 2.3431396 3.535118 2.3431396 5.6568527l0 0c0 4.4182816 -3.581726 8.0 -8.0 8.0l0 0c-4.4182816 0 -8.0 -3.5817184 -8.0 -8.0z" fill-rule="evenodd"/><path fill="#ffffff" d="m40.0 96.0l80.0 0l0 40.0l-80.0 0z" fill-rule="evenodd"/><path stroke="#000000" stroke-width="8.0" stroke-linejoin="round" stroke-linecap="butt" d="m40.0 96.0l80.0 0l0 40.0l-80.0 0z" fill-rule="evenodd"/><path fill="#ffffff" d="m40.0 96.0l80.0 0l0 40.0l-80.0 0z" fill-rule="evenodd"/><path fill="#000000" fill-opacity="0.0" d="m48.0 104.0l64.0 0" fill-rule="evenodd"/><path stroke="#000000" stroke-width="4.0" stroke-linejoin="round" stroke-linecap="butt" d="m48.0 104.0l64.0 0" fill-rule="evenodd"/><path fill="#000000" fill-opacity="0.0" d="m48.0 112.0l56.0 0" fill-rule="evenodd"/><path stroke="#000000" stroke-width="4.0" stroke-linejoin="round" stroke-linecap="butt" d="m48.0 112.0l56.0 0" fill-rule="evenodd"/><path fill="#000000" fill-opacity="0.0" d="m48.0 120.0l64.0 0" fill-rule="evenodd"/><path stroke="#000000" stroke-width="4.0" stroke-linejoin="round" stroke-linecap="butt" d="m48.0 120.0l64.0 0" fill-rule="evenodd"/><path fill="#000000" fill-opacity="0.0" d="m48.0 128.0l48.0 0" fill-rule="evenodd"/><path stroke="#000000" stroke-width="4.0" stroke-linejoin="round" stroke-linecap="butt" d="m48.0 128.0l48.0 0" fill-rule="evenodd"/></g></svg>