<svg version="1.1" viewBox="0.0 0.0 188.9763779527559 188.9763779527559" fill="none" stroke="none" stroke-linecap="square" stroke-miterlimit="10" xmlns:xlink="http://www.w3.org/1999/xlink" xmlns="http://www.w3.org/2000/svg"><clipPath id="p.0"><path d="m0 0l188.97638 0l0 188.97638l-188.97638 0l0 -188.97638z" clip-rule="nonzero"/></clipPath><g clip-path="url(#p.0)"><path fill="#000000" fill-opacity="0.0" d="m0 0l188.97638 0l0 188.97638l-188.97638 0z" fill-rule="evenodd"/><path fill="#dafdff" d="m0 94.48819l0 0c0 -52.184387 42.303802 -94.48819 94.48819 -94.48819l0 0c25.059822 0 49.09326 9.954977 66.81323 27.67495c17.719986 17.719975 27.674957 41.75341 27.674957 66.81324l0 0c0 52.184387 -42.303802 94.48819 -94.48819 94.48819l0 0c-52.184387 0 -94.48819 -42.303802 -94.48819 -94.48819z" fill-rule="evenodd"/><path fill="#000000" fill-opacity="0.0" d="m0 -16.0l188.97638 0l0 188.97638l-188.97638 0z" fill-rule="evenodd"/><path fill="#3e979a" d="m42.222565 147.60818l35.90625 -51.28125l-34.40625 -48.28125l32.15625 0l17.625 27.375l18.5625 -27.375l30.9375 0l-33.75 47.15625l36.84375 52.40625l-32.34375 0l-20.25 -30.84375l-20.4375 30.84375l-30.84375 0z" fill-rule="nonzero"/></g></svg>