<svg version="1.1" viewBox="0.0 0.0 160.0 160.0" fill="none" stroke="none" stroke-linecap="square" stroke-miterlimit="10" xmlns:xlink="http://www.w3.org/1999/xlink" xmlns="http://www.w3.org/2000/svg"><clipPath id="p.0"><path d="m0 0l160.0 0l0 160.0l-160.0 0l0 -160.0z" clip-rule="nonzero"/></clipPath><g clip-path="url(#p.0)"><path fill="#000000" fill-opacity="0.0" d="m0 0l160.0 0l0 160.0l-160.0 0z" fill-rule="evenodd"/><path fill="#3e979a" d="m0 80.0l0 0c0 -44.18278 35.81722 -80.0 80.0 -80.0l0 0c21.217316 0 41.565636 8.428547 56.568542 23.431458c15.002914 15.002911 23.431458 35.351223 23.431458 56.568542l0 0c0 44.182777 -35.817223 80.0 -80.0 80.0l0 0c-44.18278 0 -80.0 -35.817223 -80.0 -80.0z" fill-rule="evenodd"/><path fill="#ffffff" d="m24.0 112.0l56.0 -88.0l56.0 88.0z" fill-rule="evenodd"/><path fill="#3e979a" d="m32.0 136.0l48.0 -72.0l48.0 72.0z" fill-rule="evenodd"/></g></svg>