<svg version="1.1" viewBox="0.0 0.0 191.56167979002623 191.56167979002623" fill="none" stroke="none" stroke-linecap="square" stroke-miterlimit="10" xmlns:xlink="http://www.w3.org/1999/xlink" xmlns="http://www.w3.org/2000/svg"><clipPath id="p.0"><path d="m0 0l191.56168 0l0 191.56168l-191.56168 0l0 -191.56168z" clip-rule="nonzero"/></clipPath><g clip-path="url(#p.0)"><path fill="#000000" fill-opacity="0.0" d="m0 0l191.56168 0l0 191.56168l-191.56168 0z" fill-rule="evenodd"/><path fill="#ffffff" d="m0 0l192.0 0l0 192.0l-192.0 0z" fill-rule="evenodd"/><path stroke="#ffffff" stroke-width="1.0" stroke-linejoin="round" stroke-linecap="butt" d="m0 0l192.0 0l0 192.0l-192.0 0z" fill-rule="evenodd"/><defs><linearGradient id="p.1" gradientUnits="userSpaceOnUse" gradientTransform="matrix(13.856431540601127 0.0 0.0 13.856431540601127 0.0 0.0)" spreadMethod="pad" x1="1.8157582308057776E-10" y1="-5.0159964036397625E-5" x2="-5.0159964036397625E-5" y2="13.856381380546305"><stop offset="0.0" stop-color="#3e979a"/><stop offset="0.5" stop-color="#6bf6f6"/><stop offset="0.99999994" stop-color="#6bf6f6" stop-opacity="0.0"/><stop offset="1.0" stop-color="#ffffff" stop-opacity="0.0"/></linearGradient></defs><path fill="url(#p.1)" d="m0 96.0l0 0c0 -53.019337 42.980663 -96.0 96.0 -96.0l0 0c25.460785 0 49.878754 10.114257 67.88225 28.117748c18.003494 18.003494 28.117752 42.421467 28.117752 67.88225l0 0c0 53.019333 -42.980667 96.0 -96.0 96.0l0 0c-53.019337 0 -96.0 -42.980667 -96.0 -96.0z" fill-rule="evenodd"/><path fill="#ffffff" d="m32.0 96.0l0 0c0 -35.346226 28.653774 -64.0 64.0 -64.0l0 0c16.973854 0 33.252502 6.742836 45.254837 18.745167c12.002319 12.002327 18.745163 28.28098 18.745163 45.254833l0 0c0 35.346222 -28.653778 64.0 -64.0 64.0l0 0c-35.346226 0 -64.0 -28.653778 -64.0 -64.0z" fill-rule="evenodd"/><defs><linearGradient id="p.2" gradientUnits="userSpaceOnUse" gradientTransform="matrix(6.92820323027551 0.0 0.0 6.92820323027551 0.0 0.0)" spreadMethod="pad" x1="10.392304845413262" y1="27.712812921102035" x2="17.32050807568877" y2="27.712812921102035"><stop offset="0.0" stop-color="#ffffff" stop-opacity="0.0"/><stop offset="1.0" stop-color="#ffffff"/></linearGradient></defs><path fill="url(#p.2)" d="m72.0 152.0l48.0 0l0 40.0l-48.0 0z" fill-rule="evenodd"/><path fill="#ffffff" d="m120.0 0l72.0 0l0 192.0l-72.0 0z" fill-rule="evenodd"/><path stroke="#ffffff" stroke-width="1.0" stroke-linejoin="round" stroke-linecap="butt" d="m120.0 0l72.0 0l0 192.0l-72.0 0z" fill-rule="evenodd"/><path fill="#ffffff" d="m176.0 32.0l-80.0 0c8.8365555 0 16.0 -7.1634445 16.0 -16.0c0 -8.8365555 -7.1634445 -16.0 -16.0 -16.0l80.0 0l0 0c8.836563 -4.7742504E-15 16.0 7.163444 16.0 16.0c0 8.8365555 -7.163437 16.0 -16.0 16.0z" fill-rule="evenodd"/><path fill="#ffffff" d="m96.0 32.0l96.0 0l0 120.0l-96.0 0z" fill-rule="evenodd"/><path fill="#ffffff" d="m153.84679 8.294268l28.062988 62.866142l-67.08661 29.858269l-28.062988 -62.866142z" fill-rule="evenodd"/></g></svg>